<?xml version="1.0" encoding="utf-8"?>
<!-- Generator: Adobe Illustrator 13.0.2, SVG Export Plug-In . SVG Version: 6.00 Build 14948)  -->
<!DOCTYPE svg PUBLIC "-//W3C//DTD SVG 1.1//EN" "http://www.w3.org/Graphics/SVG/1.1/DTD/svg11.dtd">
<svg version="1.1" id="Layer_1" xmlns="http://www.w3.org/2000/svg" xmlns:xlink="http://www.w3.org/1999/xlink" x="0px" y="0px"
	 width="215.269px" height="49.676px" viewBox="0 0 215.269 49.676" enable-background="new 0 0 215.269 49.676"
	 xml:space="preserve">
<g>
	<g>
		<g>
			<path fill="#3672B9" d="M21.349,15.07l-0.829-1.001c-1.151-1.369-3.026-1.361-4.409-0.221c-1.393,1.146-1.8,3.044-0.654,4.432
				c0.002,0.003,0.14,0.169,0.378,0.458"/>
			<path fill="#3672B9" d="M15.809,18.708c2.638,3.171,6.182,7.437,6.182,7.437c4.421,5.364,2.444,11.975-3.55,15.739
				C13.159,45.2,3.461,44.02,0.12,38.577c2.59,7.64,11.277,12.636,20.881,10.234c8.33-2.083,17.637-12.789,7.458-25.14l-7.562-9.131
				"/>
		</g>
		<path fill="#3672B9" d="M16.629,30.184c-2.567-3.087-5.703-6.857-5.703-6.857c-4.42-5.364-2.443-11.977,3.551-15.741
			c5.281-3.318,14.979-2.139,18.319,3.308C30.207,3.251,21.52-1.741,11.916,0.659C3.587,2.74-5.72,13.445,4.458,25.797l7.211,8.711"
			/>
		<path fill="#3672B9" d="M10.523,33.173l1.72,2.076c1.151,1.369,3.026,1.359,4.41,0.221c1.391-1.147,1.8-3.043,0.653-4.436
			c-0.003-0.004-0.677-0.816-1.655-1.99"/>
	</g>
</g>
<g>
	<path d="M42.82,28.993c0.174,4.787,4.042,6.297,8.143,6.297c3.106,0,7.324-0.754,7.324-4.85c0-4.157-4.919-4.851-9.901-6.047
		c-4.921-1.197-9.902-2.962-9.902-9.2c0-6.553,6.035-9.263,11.308-9.263c6.681,0,12.013,2.27,12.422,10.209h-4.98
		c-0.353-4.159-3.75-5.483-7.033-5.483c-2.988,0-6.446,0.883-6.446,4.16c0,3.843,5.275,4.474,9.903,5.669
		c4.98,1.198,9.903,2.961,9.903,9.263c0,7.753-6.737,10.271-12.892,10.271c-6.797,0-12.539-2.961-12.831-11.025H42.82z"/>
	<path d="M84.891,27.921c0,2.961-2.696,7.368-9.259,7.368c-3.045,0-5.858-1.258-5.858-4.787c0-3.97,2.813-5.229,6.093-5.859
		c3.34-0.63,7.092-0.692,9.024-2.205V27.921z M92.976,34.978c-0.644,0.253-1.113,0.312-1.522,0.312
		c-1.583,0-1.583-1.131-1.583-3.652v-16.76c0-7.623-5.916-8.948-11.366-8.948c-6.74,0-12.542,2.837-12.833,10.901h4.98
		c0.234-4.788,3.34-6.175,7.559-6.175c3.166,0,6.738,0.757,6.738,5.419c0,4.033-4.686,3.654-10.196,4.789
		c-5.154,1.071-10.251,2.645-10.251,10.019c0,6.491,4.51,9.136,10.02,9.136c4.216,0,7.909-1.576,10.662-5.04
		c0,3.526,1.642,5.04,4.221,5.04c1.58,0,2.693-0.316,3.571-0.883V34.978z"/>
	<path d="M97.602,28.993c0.174,4.787,4.04,6.297,8.143,6.297c3.105,0,7.324-0.754,7.324-4.85c0-4.157-4.919-4.851-9.903-6.047
		c-4.921-1.197-9.902-2.962-9.902-9.2c0-6.553,6.037-9.263,11.31-9.263c6.682,0,12.014,2.27,12.422,10.209h-4.979
		c-0.354-4.159-3.754-5.483-7.034-5.483c-2.989,0-6.444,0.883-6.444,4.16c0,3.843,5.275,4.474,9.902,5.669
		c4.979,1.198,9.903,2.961,9.903,9.263c0,7.753-6.741,10.271-12.892,10.271c-6.796,0-12.542-2.961-12.833-11.025H97.602z"/>
</g>
<line fill="none" stroke="#666666" stroke-width="0.5708" x1="133.272" y1="0" x2="133.272" y2="49.676"/>
<g>
	<g>
		<path fill="#999999" d="M150.457,8.425h-2.798v-2.55h8.683v2.55h-2.798v7.397h-3.087V8.425z"/>
		<path fill="#999999" d="M156.93,5.875h3.078V9.33h2.886V5.875h3.084v9.948h-3.084V11.88h-2.886v3.942h-3.078V5.875z"/>
		<path fill="#999999" d="M167.08,5.875h8.276v2.55h-5.197v1.239h4.719v2.368h-4.719v1.243h5.351v2.548h-8.43V5.875z"/>
	</g>
	<g>
		<path fill="#999999" d="M150.468,18.104h5.152c2.719,0,3.671,1.98,3.671,3.4c0,2.411-1.627,3.54-3.922,3.54h-1.82v3.009h-3.081
			V18.104z M153.549,22.676h1.19c0.796,0,1.637-0.058,1.637-1.061c0-0.903-0.7-0.959-1.457-0.959h-1.37V22.676z"/>
		<path fill="#999999" d="M164.552,17.87c3.042,0,5.07,2.174,5.07,5.212c0,3.037-2.028,5.208-5.07,5.208
			c-3.036,0-5.067-2.171-5.067-5.208C159.484,20.043,161.516,17.87,164.552,17.87z M164.552,25.809c0.788,0,1.992-0.514,1.992-2.728
			c0-2.216-1.204-2.731-1.992-2.731c-0.78,0-1.986,0.516-1.986,2.731C162.565,25.295,163.771,25.809,164.552,25.809z"/>
		<path fill="#999999" d="M179.803,28.054h-2.997l-1.076-6.061H175.7l-1.053,6.061h-3.01l-2.714-9.949h3.023l1.219,6.146h0.029
			l1.206-6.146h2.717l1.172,6.229h0.028l1.246-6.229h3.042L179.803,28.054z"/>
		<path fill="#999999" d="M182.828,18.104h8.276v2.552h-5.194v1.238h4.716v2.369h-4.716v1.239h5.348v2.551h-8.43V18.104z"/>
		<path fill="#999999" d="M191.911,18.104h5.864c1.748,0,3.264,0.963,3.264,2.845c0,1.029-0.477,2.117-1.5,2.493
			c0.844,0.32,1.359,1.24,1.474,2.481c0.039,0.487,0.053,1.672,0.333,2.131h-3.084c-0.148-0.501-0.206-1.02-0.249-1.533
			c-0.082-0.947-0.169-1.938-1.383-1.938h-1.643v3.47h-3.076V18.104z M194.987,22.452h1.613c0.576,0,1.359-0.099,1.359-0.988
			c0-0.627-0.349-0.991-1.528-0.991h-1.444V22.452z"/>
	</g>
	<g>
		<path fill="#999999" d="M150.46,32.853h-2.772V30.33h8.597v2.523h-2.77v7.324h-3.055V32.853z"/>
		<path fill="#999999" d="M160.984,30.095c3.007,0,5.017,2.153,5.017,5.161c0,3.002-2.01,5.152-5.017,5.152
			c-3.008,0-5.021-2.15-5.021-5.152C155.964,32.249,157.977,30.095,160.984,30.095z M160.984,37.955c0.774,0,1.97-0.509,1.97-2.698
			c0-2.196-1.195-2.707-1.97-2.707c-0.778,0-1.969,0.511-1.969,2.707C159.016,37.446,160.206,37.955,160.984,37.955z"/>
		<path fill="#999999" d="M169.675,30.33h3.05v3.392h0.032l2.714-3.392h3.753l-3.587,3.845l4.171,6.002h-3.795l-2.438-3.83
			l-0.85,0.921v2.909h-3.05V30.33z"/>
		<path fill="#999999" d="M179.922,30.33h3.118l2.88,5.267h0.027V30.33h2.885v9.847h-2.967l-3.031-5.381h-0.032v5.381h-2.88V30.33z"
			/>
		<path fill="#999999" d="M194.337,30.095c3.01,0,5.017,2.153,5.017,5.161c0,3.002-2.007,5.152-5.017,5.152
			c-3.011,0-5.021-2.15-5.021-5.152C189.316,32.249,191.326,30.095,194.337,30.095z M194.337,37.955
			c0.774,0,1.965-0.509,1.965-2.698c0-2.196-1.19-2.707-1.965-2.707c-0.775,0-1.968,0.511-1.968,2.707
			C192.369,37.446,193.562,37.955,194.337,37.955z"/>
		<path fill="#999999" d="M209.519,40.176h-2.971l-1.065-6.002h-0.029l-1.042,6.002h-2.976l-2.689-9.847h2.991l1.206,6.082h0.029
			l1.189-6.082h2.69l1.164,6.165h0.031l1.232-6.165h3.008L209.519,40.176z"/>
	</g>
</g>
<g>
	<path d="M33.987,38.625c0-0.91,0.681-1.592,1.561-1.592c0.862,0,1.55,0.682,1.55,1.592c0,0.919-0.688,1.6-1.55,1.6
		C34.668,40.225,33.987,39.544,33.987,38.625z M35.548,40.54c1.042,0,1.938-0.807,1.938-1.914c0-1.102-0.896-1.911-1.938-1.911
		c-1.051,0-1.947,0.81-1.947,1.911C33.601,39.733,34.497,40.54,35.548,40.54z M35.141,38.774h0.383l0.586,0.959h0.375l-0.63-0.976
		c0.328-0.036,0.577-0.208,0.577-0.605c0-0.437-0.259-0.628-0.784-0.628h-0.84v2.209h0.333V38.774z M35.141,38.493v-0.685h0.458
		c0.23,0,0.479,0.05,0.479,0.323c0,0.338-0.249,0.361-0.535,0.361H35.141z"/>
</g>
<path d="M97.664,28.982c0.172,4.761,4.018,6.266,8.096,6.266c3.088,0,7.285-0.751,7.285-4.824c0-4.135-4.894-4.824-9.848-6.015
	c-4.893-1.19-9.85-2.946-9.85-9.149c0-6.516,6.004-9.211,11.249-9.211c6.644,0,11.944,2.258,12.352,10.153h-4.951
	c-0.352-4.137-3.732-5.454-6.993-5.454c-2.972,0-6.411,0.879-6.411,4.138c0,3.82,5.248,4.447,9.85,5.638
	c4.951,1.19,9.847,2.944,9.847,9.209c0,7.709-6.702,10.213-12.82,10.213c-6.758,0-12.471-2.944-12.763-10.964H97.664z"/>
<g>
	<path d="M116.735,38.624c0-0.908,0.682-1.59,1.561-1.59c0.863,0,1.548,0.682,1.548,1.59c0,0.921-0.685,1.601-1.548,1.601
		C117.417,40.224,116.735,39.544,116.735,38.624z M118.296,40.54c1.041,0,1.935-0.807,1.935-1.916c0-1.1-0.894-1.909-1.935-1.909
		c-1.054,0-1.948,0.81-1.948,1.909C116.348,39.733,117.242,40.54,118.296,40.54z M117.89,38.774h0.384l0.582,0.959h0.376
		l-0.627-0.977c0.322-0.035,0.571-0.207,0.571-0.604c0-0.437-0.258-0.628-0.78-0.628h-0.84v2.209h0.334V38.774z M117.89,38.492
		v-0.684h0.452c0.236,0,0.483,0.049,0.483,0.323c0,0.338-0.252,0.36-0.536,0.36H117.89z"/>
</g>
<g>
	<path fill="#666666" d="M211.774,38.624c0-0.908,0.68-1.59,1.561-1.59c0.862,0,1.548,0.682,1.548,1.59
		c0,0.921-0.686,1.601-1.548,1.601C212.454,40.224,211.774,39.544,211.774,38.624z M213.335,40.54c1.04,0,1.934-0.807,1.934-1.916
		c0-1.1-0.894-1.909-1.934-1.909c-1.056,0-1.949,0.81-1.949,1.909C211.386,39.733,212.279,40.54,213.335,40.54z M212.928,38.774
		h0.384l0.582,0.959h0.375l-0.627-0.977c0.323-0.035,0.571-0.207,0.571-0.604c0-0.437-0.256-0.628-0.78-0.628h-0.838v2.209h0.333
		V38.774z M212.928,38.492v-0.684h0.452c0.235,0,0.484,0.049,0.484,0.323c0,0.338-0.251,0.36-0.537,0.36H212.928z"/>
</g>
</svg>
