<?xml version="1.0" encoding="UTF-8"?>
<!DOCTYPE svg PUBLIC "-//W3C//DTD SVG 1.1//EN" "http://www.w3.org/Graphics/SVG/1.1/DTD/svg11.dtd">
<svg xmlns="http://www.w3.org/2000/svg" version="1.1" width="320px" height="131px" style="shape-rendering:geometricPrecision; text-rendering:geometricPrecision; image-rendering:optimizeQuality; fill-rule:evenodd; clip-rule:evenodd" xmlns:xlink="http://www.w3.org/1999/xlink">
<g><path style="opacity:0.974" fill="#017bc2" d="M 33.5,-0.5 C 40.5,-0.5 47.5,-0.5 54.5,-0.5C 69.9798,3.42611 80.9798,12.7594 87.5,27.5C 85.0145,26.5944 82.6812,24.761 80.5,22C 65.421,13.4031 50.421,13.4031 35.5,22C 22.2018,32.49 19.7018,44.99 28,59.5C 34.3333,67.1667 40.6667,74.8333 47,82.5C 48.5164,93.3199 44.0164,97.4866 33.5,95C 25.6667,85.8333 17.8333,76.6667 10,67.5C 5.39414,60.955 1.89414,53.955 -0.5,46.5C -0.5,41.5 -0.5,36.5 -0.5,31.5C 5.19781,14.9619 16.5311,4.2952 33.5,-0.5 Z"/></g>
<g><path style="opacity:0.914" fill="#000000" d="M 125.5,14.5 C 136.579,13.4548 146.912,15.6214 156.5,21C 162.707,26.7778 165.707,33.9445 165.5,42.5C 160.786,42.8266 156.12,42.4933 151.5,41.5C 150.374,34.541 146.374,30.3744 139.5,29C 133.747,28.1492 128.08,28.4826 122.5,30C 115.412,34.53 114.745,39.8633 120.5,46C 130.852,50.2562 141.519,53.5895 152.5,56C 167.003,61.8195 172.17,72.3195 168,87.5C 164.479,95.8621 158.313,101.362 149.5,104C 135.45,107.81 122.117,106.143 109.5,99C 102.77,92.6505 99.4363,84.8171 99.5,75.5C 104.179,75.3342 108.845,75.5008 113.5,76C 114.82,85.3202 120.154,90.6535 129.5,92C 136.521,93.1943 143.187,92.1943 149.5,89C 156.352,82.5704 156.019,76.5704 148.5,71C 138.007,67.1663 127.34,63.833 116.5,61C 101.5,53.3338 97.6667,41.8338 105,26.5C 110.489,20.0121 117.322,16.0121 125.5,14.5 Z"/></g>
<g><path style="opacity:0.911" fill="#000000" d="M 201.5,14.5 C 212.076,13.4286 222.076,15.2619 231.5,20C 236.293,24.4219 238.793,29.9219 239,36.5C 239.333,54.5 239.667,72.5 240,90.5C 241.793,92.8056 243.96,93.1389 246.5,91.5C 247.66,95.4589 247.827,99.4589 247,103.5C 236.105,108.997 228.771,105.997 225,94.5C 217.686,102.165 208.686,106.165 198,106.5C 178.74,105.579 169.74,95.5788 171,76.5C 172.502,66.6613 178.002,60.1613 187.5,57C 198.121,54.4521 208.788,52.1188 219.5,50C 226.604,44.9441 227.27,38.9441 221.5,32C 212.649,27.7657 203.649,27.4323 194.5,31C 190.585,34.4984 188.251,38.8317 187.5,44C 182.845,44.4992 178.179,44.6658 173.5,44.5C 174.962,27.0405 184.296,17.0405 201.5,14.5 Z M 222.5,60.5 C 228.677,79.3838 221.677,90.0505 201.5,92.5C 190.314,92.8163 185.148,87.483 186,76.5C 188.308,70.8639 192.475,67.3639 198.5,66C 204.464,64.7838 210.464,63.7838 216.5,63C 218.852,62.7599 220.852,61.9265 222.5,60.5 Z"/></g>
<g><path style="opacity:0.914" fill="#000000" d="M 271.5,14.5 C 283.111,13.2643 293.778,15.7643 303.5,22C 308.616,27.8441 311.283,34.6775 311.5,42.5C 306.5,42.5 301.5,42.5 296.5,42.5C 295.999,35.4924 292.332,30.9924 285.5,29C 279.747,28.1492 274.08,28.4826 268.5,30C 260.899,35.164 260.565,40.8307 267.5,47C 278.443,50.4862 289.443,53.8195 300.5,57C 312.612,62.7287 317.112,72.2287 314,85.5C 310.566,96.5956 303.066,103.096 291.5,105C 279.294,107.273 267.627,105.606 256.5,100C 248.684,93.728 245.018,85.5614 245.5,75.5C 250.167,75.5 254.833,75.5 259.5,75.5C 259.835,83.0055 263.501,88.1722 270.5,91C 279.11,93.4769 287.443,92.8102 295.5,89C 301.048,82.7078 300.715,76.7078 294.5,71C 282.892,67.1806 271.225,63.514 259.5,60C 251.008,55.8552 247.008,49.0218 247.5,39.5C 247.009,30.981 250.342,24.481 257.5,20C 262.017,17.4455 266.684,15.6121 271.5,14.5 Z"/></g>
<g><path style="opacity:0.974" fill="#017bc2" d="M 52.5,130.5 C 45.8333,130.5 39.1667,130.5 32.5,130.5C 17.0745,126.948 6.07451,117.948 -0.5,103.5C -0.5,102.833 -0.5,102.167 -0.5,101.5C 12.1958,114.256 27.1958,117.756 44.5,112C 63.5222,102.272 68.0222,88.1056 58,69.5C 52.3333,62.8333 46.6667,56.1667 41,49.5C 36.272,40.9619 38.6054,35.6286 48,33.5C 49.9674,33.5419 51.8008,34.0419 53.5,35C 62.119,45.0742 70.619,55.2409 79,65.5C 93.2039,88.2393 89.7039,107.739 68.5,124C 63.3931,127.065 58.0598,129.231 52.5,130.5 Z"/></g>
<g><path style="opacity:0.433" fill="#000000" d="M 91.5,96.5 C 98.9928,95.8288 101.326,98.9954 98.5,106C 91.7525,108.909 88.5858,106.743 89,99.5C 89.6979,98.3094 90.5313,97.3094 91.5,96.5 Z M 93.5,103.5 C 94.2891,103.783 94.9558,104.283 95.5,105C 94.184,105.528 93.5173,105.028 93.5,103.5 Z"/></g>
<g><path style="opacity:0.434" fill="#000000" d="M 319.5,98.5 C 319.5,100.833 319.5,103.167 319.5,105.5C 314.185,109.014 310.518,107.847 308.5,102C 309.499,96.9963 312.499,95.3297 317.5,97C 318.044,97.7172 318.711,98.2172 319.5,98.5 Z M 313.5,103.5 C 314.289,103.783 314.956,104.283 315.5,105C 314.184,105.528 313.517,105.028 313.5,103.5 Z"/></g>
</svg>
