<svg width="140" height="60" viewBox="0 0 140 60" xmlns="http://www.w3.org/2000/svg" xmlns:xlink="http://www.w3.org/1999/xlink">
  <defs>
    <path id="a" d="M0 59.821h246V0H0z"/>
  </defs>
  <g fill="none" fill-rule="evenodd">
    <path fill="#CD0638" d="m0 0 26.826 59.821 107.463-23.309V0z"/>
    <g>
      <path d="M40.683 12.105c-4.282 0-6.422 3.43-6.422 10.29 0 3.485.505 6.173 1.513 8.065 1.01 1.892 2.454 2.838 4.336 2.838 1.037 0 2.019-.38 2.946-1.137 1.064-.866 1.922-2.138 2.577-3.816.464-1.353 1.036-2.03 1.718-2.03.545 0 .967.224 1.269.671.3.449.45 1.2.45 2.258v.65c-.055.353-.082.611-.082.773-.11 1.14-.274 1.933-.491 2.38-.218.448-.655.915-1.309 1.404-1.555.84-2.373 1.275-2.455 1.301-1.746.76-3.45 1.14-5.113 1.14-3.246 0-5.837-1.287-7.773-3.86-1.937-2.572-2.904-6.036-2.904-10.392 0-4.191 1.002-7.588 3.006-10.188 2.005-2.6 4.63-3.9 7.875-3.9.546 0 1.043.041 1.493.122.45.082 1.343.314 2.68.695.463.163.845.244 1.145.244.082 0 .436-.067 1.064-.204.627-.135 1.022-.204 1.187-.204.9 0 1.35.79 1.35 2.368l.163 5.134c0 1.315-.505 1.972-1.513 1.972-.983 0-1.543-.492-1.679-1.479-.273-1.945-.756-3.28-1.451-4.007-.696-.725-1.889-1.088-3.58-1.088M71.374 12.555l-1.68-.001c-1.806 0-2.707-.592-2.707-1.775 0-.458.164-.834.491-1.13a1.706 1.706 0 0 1 1.186-.444h7.2c1.282 0 1.922.64 1.922 1.92 0 .545-.177.918-.531 1.122-.356.204-1.037.307-2.046.307l-2.865 22.581c-.163 1.361-.953 2.042-2.37 2.042-.574 0-1.012-.11-1.31-.327-.409-.3-.777-.953-1.105-1.96l-3.354-9.596-3.232 9.678c-.483 1.47-1.355 2.205-2.616 2.205-1.396 0-2.2-.762-2.416-2.287l-3.436-22.336c-.9 0-1.547-.144-1.942-.429-.396-.286-.594-.715-.594-1.286 0-.49.191-.885.573-1.184.382-.3.886-.45 1.514-.45h7.24c1.118 0 1.677.511 1.677 1.533 0 1.21-.72 1.816-2.159 1.816l-1.466-.002 2.176 16.297 2.699-8.08c.435-1.284 1.102-1.927 2-1.927.98 0 1.686.639 2.122 1.915l3.192 8.884 1.837-17.086ZM93.535 12.554H90.51v20.335h4.704c.518 0 .947.157 1.289.47.34.313.512.728.512 1.246 0 .49-.179.885-.532 1.184-.355.3-.806.449-1.35.449H81.468c-.573 0-1.037-.15-1.39-.449-.356-.3-.532-.72-.532-1.266 0-.49.163-.884.49-1.184.327-.3.777-.45 1.35-.45H85.6V12.554h-4.376c-.492 0-.896-.157-1.209-.47-.313-.312-.47-.714-.47-1.204 0-.517.164-.925.491-1.225.327-.3.777-.45 1.35-.45h13.008c1.255 0 1.882.545 1.882 1.634 0 .68-.198 1.137-.593 1.368-.396.231-1.111.347-2.148.347" fill="#FEFEFE"/>
      <mask id="b" fill="#fff">
        <use xlink:href="#a"/>
      </mask>
    </g>
  </g>
</svg>
