<svg version="1.2" baseProfile="tiny-ps" xmlns="http://www.w3.org/2000/svg" viewBox="0 0 172 68" width="172" height="68">
	<title>Ohio University Logo</title>
	<style>
		tspan { white-space:pre }
		.shp0 { fill: #00694e } 
	</style>
	<path id="Layer" fill-rule="evenodd" class="shp0" d="M101.2 61.2C100.3 59.5 100.4 59.6 98.6 59.3L98.6 61.2C98.6 63.8 98.5 64.7 101.6 64.9L101.6 65.4L93.6 65.4L93.6 64.9C95.9 64.5 96.1 64.7 96.1 61.2L96.1 56.1C96.1 53.5 96 53.2 93.6 53L93.6 52.5L99.5 52.5C101.8 52.5 105 52.5 105 55.5C104.98 55.85 104.91 56.2 104.78 56.54C104.65 56.87 104.47 57.18 104.25 57.45C104.03 57.73 103.76 57.97 103.47 58.17C103.17 58.36 102.84 58.51 102.5 58.6L104.5 62.3C104.88 62.94 105.34 63.54 105.87 64.07C106.4 64.6 107 65.06 107.64 65.44C108.28 65.83 108.97 66.13 109.69 66.34C110.41 66.55 111.15 66.67 111.9 66.7L112.8 66.7C111.92 66.99 111 67.15 110.07 67.16C109.14 67.17 108.22 67.04 107.33 66.78C106.44 66.51 105.59 66.11 104.83 65.59C104.06 65.06 103.38 64.43 102.8 63.7C102.1 62.7 101.5 61.7 101.2 61.2ZM98.6 58.6C100.4 58.5 102.1 57.7 102.1 55.6C102.1 53.7 100.3 53.2 98.6 53.2L98.6 58.6Z" />
	<path id="Layer" class="shp0" d="M12.7 53C14.5 53.4 15.4 53.2 15.5 55.3L15.6 59.9C15.7 62.3 15.2 64.5 12.1 64.5C11.76 64.52 11.42 64.49 11.08 64.43C10.75 64.37 10.42 64.27 10.11 64.13C9.8 63.99 9.5 63.81 9.23 63.61C8.96 63.4 8.72 63.16 8.5 62.9C8.38 62.62 8.27 62.33 8.18 62.04C8.09 61.74 8.03 61.44 7.97 61.14C7.92 60.83 7.89 60.53 7.88 60.22C7.87 59.91 7.87 59.61 7.9 59.3L7.9 56.6C7.9 54 7.8 53.1 10.4 52.9L10.4 52.4L2.9 52.4L2.9 52.9C5.2 53.3 5.4 53.1 5.4 56.6L5.4 59.6C5.4 61.2 5.2 63 6.5 64.2C6.81 64.44 7.14 64.65 7.49 64.83C7.84 65.01 8.2 65.16 8.58 65.28C8.95 65.4 9.34 65.49 9.73 65.54C10.11 65.6 10.51 65.61 10.9 65.6C11.3 65.62 11.7 65.61 12.1 65.55C12.5 65.49 12.89 65.39 13.27 65.26C13.64 65.12 14.01 64.94 14.35 64.73C14.69 64.52 15.01 64.28 15.3 64C16.4 62.9 16.4 61.1 16.5 59.6L16.6 56.7C16.8 53.5 16.8 53.2 18.6 52.8L19.4 52.8L19.5 52.3L12.7 52.3L12.7 53L12.7 53Z" />
	<path id="Layer" class="shp0" d="M25.4 62.1C25.4 64.7 24.4 64.6 23.1 64.9L23.1 65.4L29.3 65.4L29.3 64.9C27.1 64.4 26.6 64.3 26.6 61.9C26.5 59.8 26.4 57.8 26.5 55.7C29.6 59.1 36.9 67.5 36.9 67.5L36.9 57.1C36.9 54 37 53.2 38.7 53L38.7 52.5L32.9 52.5L32.9 53C35.1 53.3 35.7 53.6 35.8 55.9L35.9 62L35.9 62C33.2 58.8 29.8 55.6 27.4 52.5L23 52.5L23 53C25.4 53.4 25.5 54.8 25.5 56.8L25.5 62.1L25.4 62.1Z" />
	<path id="Layer" class="shp0" d="M49.8 56.6C49.8 53.2 50 53.3 52.3 52.9L52.3 52.4L44.8 52.4L44.8 52.9C47.1 53.3 47.3 53.1 47.3 56.6L47.3 61.1C47.3 64.5 47.1 64.4 44.8 64.8L44.8 65.3L52.3 65.3L52.3 64.8C50 64.4 49.8 64.6 49.8 61.1L49.8 56.6L49.8 56.6Z" />
	<path id="Layer" class="shp0" d="M64.3 67.5L68.4 57.5C69.7 54.4 70.2 53.2 71.9 53L71.9 52.5L65.9 52.5L65.9 53C68.3 53.4 68.9 53.3 66.9 58.5L65.2 62.6L62.6 56.3C61.4 53.5 61.5 53.5 63.7 53L63.7 52.5L56.9 52.5L56.9 53C58.4 53.5 58.4 53.4 59.4 55.5L64.3 67.5L64.3 67.5Z" />
	<path id="Layer" class="shp0" d="M82.5 59.2C84.2 59.2 85.1 59.2 85.4 61L85.9 61C85.88 60.6 85.87 60.2 85.87 59.8C85.86 59.4 85.87 59 85.88 58.6C85.88 58.2 85.9 57.8 85.92 57.4C85.94 57 85.97 56.6 86 56.2L85.5 56.2C85 57.9 84.2 58.1 82.5 58.1L80.9 58.1L80.9 53.2L82.3 53.2C84.4 53.2 86.1 53.2 86.2 55.7L86.8 55.7L87.2 52.4L75.9 52.4L75.9 52.9C78.2 53.3 78.4 53.1 78.4 56.6L78.4 61.1C78.4 64.5 78.2 64.4 75.9 64.8L75.9 65.3L87.4 65.3C87.52 64.95 87.63 64.59 87.72 64.23C87.81 63.86 87.88 63.5 87.94 63.13C88 62.76 88.04 62.39 88.07 62.02C88.09 61.65 88.1 61.27 88.1 60.9L87.5 60.9C87 63.1 85.9 64.5 83.4 64.5C80.9 64.5 80.8 63.6 80.8 61.7L80.8 59.2L82.5 59.2Z" />
	<path id="Layer" class="shp0" d="M131.9 56.6C131.9 53.2 132.1 53.3 134.4 52.9L134.4 52.4L126.9 52.4L126.9 52.9C129.2 53.3 129.4 53.1 129.4 56.6L129.4 61.1C129.4 64.5 129.2 64.4 126.9 64.8L126.9 65.3L134.4 65.3L134.4 64.8C132.1 64.4 131.9 64.6 131.9 61.1L131.9 56.6L131.9 56.6Z" />
	<path id="Layer" class="shp0" d="M140 56.2C140.8 53.5 142.2 53.2 144.8 53.2L144.8 61.1C144.8 64.5 144.6 64.4 141.9 64.8L141.9 65.3L150.1 65.3L150.1 64.8C147.5 64.4 147.2 64.6 147.2 61.1L147.2 53.2C149.8 53.2 151.2 53.5 152 56.2L152.5 56.1L152.1 52.4L139.8 52.4L139.4 56.1L140 56.2L140 56.2L140 56.2Z" />
	<path id="Layer" class="shp0" d="M163.7 59.9L164 59.2L166.2 55.2C166.36 54.9 166.55 54.62 166.77 54.37C167 54.12 167.25 53.9 167.53 53.7C167.81 53.51 168.11 53.36 168.42 53.24C168.74 53.12 169.07 53.04 169.4 53L169.4 52.5L163.9 52.5L163.9 53C165.6 53.4 165.9 53.6 164.3 56.9L163.3 59L161.6 55.5C160.5 53.2 161.1 53.3 162.5 53L162.5 52.5L155.9 52.5L155.9 53C158 53.4 158.3 54.3 159.1 56L161.2 60.3L161.2 61.2C161.2 64.6 161 64.5 158.4 64.9L158.4 65.4L166.4 65.4L166.4 64.9C163.5 64.7 163.6 63.8 163.6 61.2L163.6 59.9L163.7 59.9L163.7 59.9Z" />
	<path id="Layer" class="shp0" d="M116.5 65.7C118.9 65.7 121.5 64.6 121.5 61.8C121.5 57.8 115.2 58 115.2 54.9C115.19 54.64 115.23 54.39 115.32 54.15C115.41 53.9 115.55 53.68 115.73 53.5C115.9 53.31 116.12 53.16 116.35 53.06C116.59 52.96 116.84 52.9 117.1 52.9C119.1 52.9 119.5 54.6 119.9 56.2L120.5 56.2L120.7 52.9C120.46 52.75 120.21 52.63 119.95 52.51C119.7 52.4 119.43 52.31 119.16 52.23C118.89 52.16 118.62 52.1 118.34 52.06C118.06 52.02 117.78 52 117.5 52C115.2 52 112.8 53.4 112.8 55.9C112.8 59.7 119.1 59.4 119.1 62.6C119.1 62.89 119.05 63.17 118.94 63.43C118.83 63.69 118.66 63.93 118.46 64.13C118.25 64.33 118.01 64.48 117.74 64.58C117.47 64.67 117.18 64.72 116.9 64.7C114.7 64.7 113.3 62.6 112.6 60.7L112 60.8L112.7 64.4C112.96 64.62 113.25 64.81 113.55 64.98C113.84 65.15 114.16 65.29 114.48 65.4C114.8 65.51 115.14 65.59 115.48 65.64C115.82 65.69 116.16 65.71 116.5 65.7L116.5 65.7L116.5 65.7Z" />
	<path id="Layer" fill-rule="evenodd" class="shp0" d="M171.9 21.5C171.9 33.7 163.1 41.4 151.2 41.4C139.3 41.4 130.5 33.6 130.5 21.4C130.4 9.4 139.3 1.6 151.1 1.6C165.6 1.6 171.9 11.5 171.9 21.5ZM137.8 20.2C137.8 28.5 142.2 39.1 151.9 39.1C160.8 39.1 164.7 30.1 164.7 22.4C164.4 12.9 158.9 3.9 150.7 3.9C141.5 3.9 137.8 12.9 137.8 20.2Z" />
	<path id="Layer" fill-rule="evenodd" class="shp0" d="M41.8 21.5C41.8 33.7 33 41.4 21.1 41.4C9.2 41.4 0.4 33.6 0.4 21.4C0.3 9.4 9.1 1.6 21 1.6C35.5 1.6 41.8 11.5 41.8 21.5ZM7.6 20.2C7.6 28.5 12 39.1 21.7 39.1C30.6 39.1 34.5 30.1 34.5 22.4C34.3 12.9 28.7 3.9 20.5 3.9C11.3 3.9 7.6 12.9 7.6 20.2Z" />
	<path id="Layer" class="shp0" d="M116.3 11.5C116.5 5.7 116.5 3.9 123.3 3L123.3 2.1L104.2 2.1L104.2 3C111 3.9 111.1 5.6 111.2 11.5L111.2 31.5C111 37.4 111 39.1 104.2 40L104.2 40.9L123.3 40.9L123.3 40C116.5 39.1 116.4 37.4 116.3 31.5L116.3 11.5L116.3 11.5Z" />
	<path id="Layer" class="shp0" d="M61 11.5L61 17.8L83.6 17.8L83.6 11.5C83.4 5.7 83.4 3.9 76.6 3L76.6 2.1L95.7 2.1L95.7 3C88.9 3.9 88.8 5.6 88.7 11.5L88.7 31.5C88.9 37.4 88.9 39.1 95.7 40L95.7 40.9L76.6 40.9L76.6 40C83.4 39.1 83.5 37.4 83.6 31.5L83.6 21.3L61 21.3L61 31.5C61.2 37.4 61.2 39.1 68 40L68 40.9L48.9 40.9L48.9 40C55.7 39.1 55.8 37.4 55.9 31.5L55.9 11.5C55.7 5.7 55.7 3.9 48.9 3L48.9 2.1L68 2.1L68 3C61.2 4 61.2 5.7 61 11.5L61 11.5Z" />
</svg>